<svg width="32" height="32" viewBox="0 0 32 32" fill="none" xmlns="http://www.w3.org/2000/svg">
<path d="M27.493 11.6003C26.1063 5.42699 20.7197 2.66699 15.9997 2.66699C15.9997 2.66699 15.9997 2.66699 15.9863 2.66699C11.2797 2.66699 5.90633 5.42699 4.50633 11.587C2.933 18.467 7.14633 24.2937 10.9597 27.9737C12.373 29.3337 14.1863 30.0137 15.9997 30.0137C17.813 30.0137 19.6263 29.3337 21.0263 27.9737C24.8397 24.2937 29.053 18.4803 27.493 11.6003ZM20.373 12.707L15.0397 18.0403C14.8397 18.2403 14.5863 18.3337 14.333 18.3337C14.0797 18.3337 13.8263 18.2403 13.6263 18.0403L11.6263 16.0403C11.2397 15.6537 11.2397 15.0137 11.6263 14.627C12.013 14.2403 12.653 14.2403 13.0397 14.627L14.333 15.9203L18.9597 11.2937C19.3463 10.907 19.9863 10.907 20.373 11.2937C20.7597 11.6803 20.7597 12.3203 20.373 12.707Z" fill="#277D2A"/>
</svg>
